<svg xmlns="http://www.w3.org/2000/svg" viewBox="0 0 108 108"><defs><style>.cls-1{fill:#fcfcfc;opacity:0;}.cls-2{fill:#262727;}.cls-3{fill:#fff;}.cls-4{fill:#fd0;}</style></defs><title>6</title><g id="图层_2" data-name="图层 2"><rect class="cls-1" width="108" height="108"/><g id="_6" data-name="6"><path class="cls-2" d="M41.4,71.47c-1.07.79-2.32,1.63-3.62,1.36s-2-1.34-2.68-2.32a15.22,15.22,0,0,0-4.65-4.64,6.21,6.21,0,0,0-6.3-.14,4.68,4.68,0,0,0,1.19,8.39c1.73.53,3.8.08,5.25,1.17a8.76,8.76,0,0,1,1.4,1.6,8.9,8.9,0,0,0,6.92,3.27A8.67,8.67,0,0,0,40.6,91.68a2.25,2.25,0,0,1,.8.83,1.85,1.85,0,0,1,0,1.1c-.42,1.88-1.23,3.78-.78,5.65.59,2.42,3.06,3.82,5.29,4.94a6.56,6.56,0,0,0,1.8.69,6.56,6.56,0,0,0,2.29-.15,11.74,11.74,0,0,0,4.27-1.38,4,4,0,0,0,2-3.77c-.18-1.12-1-2-1.37-3.12s0-2.62,1.13-2.74a1.7,1.7,0,0,1,1.64,1.61,5.19,5.19,0,0,1-.57,2.46,4.51,4.51,0,0,0-.47,2.47c.32,1.73,2.34,2.47,4,2.9a16.4,16.4,0,0,0,6.53.73,14.6,14.6,0,0,0,6.18-3.08c1.15-.86.38-2.55-.5-3.69a7,7,0,0,0-3.62-2.21,4.34,4.34,0,0,1-1.79-.8,2.61,2.61,0,0,1,.16-3.51,1.17,1.17,0,0,1,.45-.34c.42-.16.87.12,1.25.37a7.75,7.75,0,0,0,4.26,1.42A4.45,4.45,0,0,0,77.41,90a3.16,3.16,0,0,0-.81-4.07,13.57,13.57,0,0,0,3.92-2.27,6.93,6.93,0,0,0,2.56-2.75,4.65,4.65,0,0,0-.37-3.79A13.72,13.72,0,0,0,80.29,74c-2.19-2.28-4.72-4.72-7.89-4.8-.55,0-1.23.14-1.38.68-.08.3-2,1.25-1.87,1.55.39,1.29,2.22,2.28,3.26,3.13.33.27.73.42,1.07.67a3.47,3.47,0,0,1,.74.83A5.29,5.29,0,0,1,75.28,80a2.78,2.78,0,0,1-3,2.3,40.63,40.63,0,0,0,.46-4.73,4,4,0,0,0-.3-2.05,4.15,4.15,0,0,0-1.14-1.2,35.12,35.12,0,0,0-5.6-3.89,12.34,12.34,0,0,0-6.56-1.55,41.24,41.24,0,0,0-4.58.93C50.32,70.64,44.88,68.89,41.4,71.47Z"/><path class="cls-2" d="M53.06,73.19a68.59,68.59,0,0,0,15.51-.92,34.86,34.86,0,0,0,15.65-6.54c4.81-3.8,7.44-9.9,8.39-16a41,41,0,0,0-1.66-18.18,20,20,0,0,1-1.15-5c-.16-4,2.49-7.56,3.77-11.38.32-1,.51-2.14-.53-2.73a2.09,2.09,0,0,0-1.76-.09,21.81,21.81,0,0,0-5,2.38c-.43.3-2.42,1.28-2.88.38a1.34,1.34,0,0,1,0-.91c.71-2.89,3-7.14,2.92-9.27,0-.81-.77-1-1.56-1.14a3.48,3.48,0,0,0-1.85.2,56.69,56.69,0,0,0-12.14,6.64c-1.12.8-2.92,1.93-3.67,1.92-.29,0-.53-.15-.42-.41l.9-2.06c.71-1.17.71-3.46-1.24-3.24a38.5,38.5,0,0,0-4.12.92,104.7,104.7,0,0,0-15,4.44,95.9,95.9,0,0,0-9.48,4.25A33.66,33.66,0,0,0,26.95,26,29.46,29.46,0,0,0,21.9,37.55,34.5,34.5,0,0,0,22,49.69a26.31,26.31,0,0,0,5.19,12c4.27,5.38,10.64,8.81,14.66,9.69A49.85,49.85,0,0,0,53.06,73.19Z"/><path d="M53.06,73.79c9.48.48,19.84-.5,28.19-5.34,7.83-4.54,11.69-12.79,12.27-21.63A43.25,43.25,0,0,0,91.6,31.71c-.81-2.7-1.6-5.2-.86-8A52.75,52.75,0,0,1,93.51,17c.52-1.24,1.39-3,.55-4.34C93,11,91,11.83,89.61,12.4a22.64,22.64,0,0,0-2.38,1.07c-.69.37-1.59,1.23-2.42,1.32-1.37.16-.53-1.48-.27-2.21.37-1,.79-2.06,1.19-3.09.52-1.35,1.42-3.17,1.17-4.67S85,3.1,83.82,3.21c-2.07.18-4.4,1.65-6.21,2.58a57.54,57.54,0,0,0-6.67,4,23.82,23.82,0,0,1-2.65,1.71c-.45.23-1,.49-1,.84a3.22,3.22,0,0,1,.34-.78,8,8,0,0,0,1-3c0-3.65-4.53-1.84-6.55-1.33a108.28,108.28,0,0,0-15,4.44c-4.28,1.76-8.68,3.43-12.5,6.08-7.19,5-12.46,12.75-13.51,21.52-1.13,9.44,1.54,19.48,8.7,26A32.27,32.27,0,0,0,46.26,73a58.15,58.15,0,0,0,6.79.8c.77,0,.77-1.15,0-1.2-5.57-.33-11.59-1.29-16.56-4A26.89,26.89,0,0,1,22.48,49C21,40.1,23.08,31.21,29,24.36c5.58-6.43,13.4-9.94,21.31-12.66,4.54-1.56,9.24-2.66,13.9-3.8C65,7.71,66.89,7,67.35,8c.3.65-.11,1.41-.36,2-.36.84-1,1.72-.83,2.65a.6.6,0,0,0,.42.42c1.31.4,2.72-.68,3.75-1.36,2-1.34,4-2.73,6.1-3.92a32.55,32.55,0,0,1,6.64-3.17c1.32-.37,2.88-.25,2.52,1.49a18.45,18.45,0,0,1-.85,2.63c-.52,1.37-3.75,7.12-.73,7.39,1.25.11,2.4-.79,3.4-1.38a20.81,20.81,0,0,1,3-1.38c.55-.21,1.44-.69,2-.47,1.27.49.65,1.88.36,2.66-1.37,3.81-4,7.37-3.57,11.61a39,39,0,0,0,1.62,6.29,44.6,44.6,0,0,1,1.43,8c.7,8.81-1.7,18.9-9.19,24.35-8.47,6.16-19.87,7.27-30,6.75C52.28,72.55,52.29,73.75,53.06,73.79Z"/><path class="cls-3" d="M40.34,62.51a6.83,6.83,0,0,0,3,.33,7.44,7.44,0,0,0,6.31-6,1.14,1.14,0,0,0-.06-.85,4,4,0,0,0-2.11-.76c-8.15-1.29-11.55-2.1-17.66-3-1.16-.17-2,.4-1.38,1.28A26.53,26.53,0,0,0,40.34,62.51Z"/><path d="M40.18,63.09a7.72,7.72,0,0,0,9.09-3.65c.55-1,1.56-2.92.63-3.92a3.58,3.58,0,0,0-1.78-.75c-1.3-.3-2.66-.44-4-.66-3.79-.64-7.56-1.37-11.35-2-1.27-.21-3.44-1-4.61-.19s-.17,2.16.5,3a26.25,26.25,0,0,0,11.48,8.17c.73.25,1-.9.32-1.16A25.31,25.31,0,0,1,30.4,55.07c-.42-.46-2-1.84-1.1-2.26.5-.24,2.2.3,2.76.39,1.54.25,3.08.52,4.62.8,3.68.66,7.48,1.08,11.12,1.92.6.14.78.11,1,.72a2.2,2.2,0,0,1-.36,1.79,7.4,7.4,0,0,1-1.64,2.19,6.38,6.38,0,0,1-6.31,1.3A.6.6,0,0,0,40.18,63.09Z"/><path class="cls-3" d="M70.33,61.35a7.1,7.1,0,0,1-3,.73c-3.2.17-6.29-2.3-7.29-5.34a1.19,1.19,0,0,1,0-.88A4.13,4.13,0,0,1,62,54.8c8.23-2.4,11.63-3.68,17.81-5.43,1.18-.33,2.1.15,1.59,1.14A27.57,27.57,0,0,1,70.33,61.35Z"/><path d="M70,60.84a6.63,6.63,0,0,1-6.69-.59,7.6,7.6,0,0,1-2.24-2.54c-.22-.41-.69-1.17-.46-1.66s1.2-.54,1.57-.67c3.57-1.2,7.23-2.19,10.83-3.32,1.47-.46,2.95-.92,4.43-1.36A8.26,8.26,0,0,1,80,50c1.51.21,0,1.89-.41,2.43A26.31,26.31,0,0,1,70,60.84c-.69.34-.08,1.38.61,1a27.56,27.56,0,0,0,9.88-8.69c.63-.88,2.23-2.67,1.48-3.84s-2.79-.4-3.82-.09c-3.69,1.07-7.34,2.28-11,3.41-2.15.66-4.6,1.08-6.61,2.09-1.47.74-1.38,1.76-.7,3.17a8.13,8.13,0,0,0,10.78,4C71.33,61.56,70.72,60.53,70,60.84Z"/><path d="M44.06,47.61c-.53.67.45,1.63,1.28,2.26a6.45,6.45,0,0,0,2.58,1.06c.57.11,1.35,0,1.42-.6a1.05,1.05,0,0,0-.35-.84C45.39,46.07,44.06,47.61,44.06,47.61Z"/><path d="M43.56,47.32c-1,1.74,1.67,3.36,3,3.85a3.64,3.64,0,0,0,2.54.25,1.27,1.27,0,0,0,.64-1.81c-.69-1.42-4.51-4.16-6.1-2.39-.5.55.32,1.37.82.82a.74.74,0,0,1,.36-.16,2.81,2.81,0,0,1,1.8.52,9.57,9.57,0,0,1,1.52,1.13c.15.13.7.54.58.82s-.76,0-.94,0a5.64,5.64,0,0,1-1.9-.77c-.36-.23-1.61-1.13-1.32-1.65S43.93,46.67,43.56,47.32Z"/><path d="M62.78,47A4.85,4.85,0,0,0,60,49.36a1.07,1.07,0,0,0,0,1.12,1.25,1.25,0,0,0,1.12.27,5.84,5.84,0,0,0,2.82-1.61,3.69,3.69,0,0,0,.87-1.06c.33-.78-.09-1.14-.65-1.25A3.19,3.19,0,0,0,62.78,47Z"/><path d="M62.62,46.4c-1.42.58-3.15,1.67-3.4,3.34-.3,2,2.08,1.7,3.21,1.16s2.85-1.77,3-3.1c.2-1.62-1.69-1.76-2.82-1.4-.73.23-.42,1.39.32,1.16a2.86,2.86,0,0,1,.66-.15c.35,0,.56-.08.56.32a.9.9,0,0,1-.34.64,7.28,7.28,0,0,1-1.59,1.29,2.88,2.88,0,0,1-1,.43c-.24,0-.72,0-.77-.34,0-.13.21-.42.28-.53a4.6,4.6,0,0,1,2.21-1.65C63.65,47.27,63.34,46.11,62.62,46.4Z"/><path d="M51.83,66.92c2.19,1.13,5.22,1.06,7-.83A3.72,3.72,0,0,0,60,63.66c-.1-.73-.91-1.12-1.52-1.36s-1,.77-.46,1.1l2.43,1.34c.68.37,1.28-.66.61-1l-2.43-1.34-.46,1.1C59.52,64,57.69,65.62,57,66a5,5,0,0,1-4.59-.07c-.68-.35-1.29.68-.61,1Z"/><path d="M22.29,72.13a15.14,15.14,0,0,1-6.4,4.17,11.38,11.38,0,0,0-5.06,3c-1.29,1.49-1.12,3.4-.48,5.15.46,1.27,1.15,3.15,2.75,3.26A2.69,2.69,0,0,0,14.85,87a3.46,3.46,0,0,1,1.64-.91,2.72,2.72,0,0,1,2.39,1c1,.89,2,1.67,3.22.48s1-4.11,1.32-5.7A29.2,29.2,0,0,1,26,74.74c.35-.69-.68-1.29-1-.61a30.17,30.17,0,0,0-3.08,9.77c0,.37-.08.73-.13,1.1-.11.93,0,1.53-1,1.56s-1.33-.69-2.09-1.16a3.18,3.18,0,0,0-3.19-.3c-.56.28-1,.92-1.54,1.15-1.61.67-2.32-1.71-2.59-2.65-.78-2.72.8-4.26,3.08-5.42,1.61-.82,3.44-1.08,5-2A19.23,19.23,0,0,0,23.14,73c.54-.55-.31-1.4-.85-.85Z"/><path d="M23,74.48c-2.8,1.73-3.3,4.23-3.32,7.35a.6.6,0,0,0,1.2,0c0-2.67.3-4.82,2.72-6.32.65-.4.05-1.44-.61-1Z"/><path d="M16,80.36a4.44,4.44,0,0,1-2.86,1.53c-.76.13-.44,1.29.32,1.16a5.43,5.43,0,0,0,3.39-1.83c.49-.59-.35-1.44-.85-.85Z"/><path d="M41.91,70.89A6,6,0,0,0,39.3,72c-1.7,1.15-2.9-.37-3.65-1.71-1.08-1.93-2.18-3.82-4.12-5-3.59-2.19-9.08-1.2-10.1,3.35A4.79,4.79,0,0,0,23,73.43a6.71,6.71,0,0,0,2.58,1.28c1.19.32,2.49.07,3.64.42,2.33.7,3.16,3.74,5.24,4.94a5.83,5.83,0,0,0,5.56.27c.7-.33.09-1.37-.61-1a5.06,5.06,0,0,1-6.12-1.86c-1-1.33-1.89-2.79-3.54-3.39-1.9-.69-3.9-.06-5.7-1.32a3.94,3.94,0,0,1-.19-6.13c1.87-1.77,4.95-1.54,7-.28s2.79,3.12,3.91,5c.64,1.06,1.72,2.42,3.07,2.49,1.56.08,2.79-1.49,4.32-1.74.76-.12.44-1.28-.32-1.16Z"/><path class="cls-4" d="M25.52,84.24c0,1.65-.46,3.17-2,3.85,1.63.64,2.21,2,2.84,3.34a5,5,0,0,1,1.82-4,4.19,4.19,0,0,1-2.69-3.17"/><path d="M24.92,84.24a3.34,3.34,0,0,1-1.67,3.33.6.6,0,0,0,0,1,5.45,5.45,0,0,1,2.62,3.12c.26.56,1.11.25,1.12-.3a4.63,4.63,0,0,1,1.65-3.6.61.61,0,0,0-.26-1,3.59,3.59,0,0,1-2.27-2.75c-.14-.76-1.29-.44-1.16.32A4.77,4.77,0,0,0,28,88l-.26-1a5.79,5.79,0,0,0-2,4.44l1.12-.3a6.3,6.3,0,0,0-3.05-3.55v1a4.52,4.52,0,0,0,2.27-4.36.6.6,0,0,0-1.2,0Z"/><path class="cls-4" d="M14.87,68.39a4.88,4.88,0,0,1-2,3.52A7,7,0,0,1,15.3,75a7,7,0,0,1,2-3.49c-1.16-.28-2-2-2.39-3.12"/><path d="M14.27,68.39a4.21,4.21,0,0,1-1.66,3,.61.61,0,0,0,0,1,6.67,6.67,0,0,1,2.18,2.88c.22.49,1,.32,1.1-.14a6.9,6.9,0,0,1,1.81-3.23.61.61,0,0,0-.26-1c-1.07-.38-1.61-1.73-2-2.7-.27-.71-1.43-.4-1.16.32.54,1.43,1.28,3,2.81,3.54l-.26-1a8.12,8.12,0,0,0-2.12,3.76l1.1-.14a7.73,7.73,0,0,0-2.61-3.31v1a5.51,5.51,0,0,0,2.26-4c.09-.76-1.11-.76-1.2,0Z"/><path d="M22.68,63.06a4.24,4.24,0,0,0-2.79,3.38c-.1.75,1.05,1.08,1.16.32a3.08,3.08,0,0,1,2-2.54c.72-.26.41-1.42-.32-1.16Z"/><path class="cls-4" d="M64.08,83.36l3.22-.23c.25,0,.38-.19.27-.37s-.06-.18.07-.17c.71.25.94,1.49,1,2.31a.63.63,0,0,1-.56.71l-6.63.5h0q-.9-.06-.94-.77l-.08-1a1.62,1.62,0,0,1,.42-1.21l3.49-3.92-3.67.27a.63.63,0,0,1-.66-.62c-.11-.8-.06-2.07.6-2.42.13,0,.11.11.09.16s.07.33.32.33l4.62-.35a9,9,0,0,0,2-.24c.18-.07.27,0,.24.14a4.48,4.48,0,0,0,0,1,2.41,2.41,0,0,1-.76,2.42l-3,3.43Z"/><path d="M45.62,72.86c.65,1.46-1,3.19-2.07,4S41.42,78,40.41,78.62a9.79,9.79,0,0,0-3.75,4.3c-1.46,3.77,1,8.05,4.36,9.73.69.34,1.3-.69.61-1a7.06,7.06,0,0,1-4.09-6.06A6.84,6.84,0,0,1,41,79.66c2.39-1.57,7.3-3.65,5.64-7.4-.31-.7-1.34-.09-1,.61Z"/><path d="M40.67,90.91c1.07,1.9.47,3.18-.32,5a5.66,5.66,0,0,0-.5,3.28c.57,3.62,3.79,5.4,7.17,5.85,3.14.42,7,.1,9.08-2.68a4.33,4.33,0,0,0,.69-3.87c-.37-1.2-2.62-3.42-.87-4.48a.6.6,0,0,0-.61-1c-2.1,1.26-1,3.4-.06,5.05,1.09,2,.16,3.9-1.7,5a9.7,9.7,0,0,1-5.64.91c-3.65-.31-8.28-2.79-6.63-7.18.91-2.41,1.82-4,.42-6.46a.6.6,0,0,0-1,.61Z"/><path d="M67.8,89.07a13.71,13.71,0,0,1-8.54,3.74,15.14,15.14,0,0,1-6.35-.55c-.72-.28-1,.88-.32,1.16a16.09,16.09,0,0,0,7.2.54,15,15,0,0,0,8.86-4c.56-.53-.29-1.38-.85-.85Z"/><path d="M71.88,75.12a12.55,12.55,0,0,1-.46,7.39c-.24.74.92,1.05,1.16.32a13.69,13.69,0,0,0,.46-8,.6.6,0,0,0-1.16.32Z"/><path d="M68.73,73c2,1.29,4.45,2.75,5.73,4.86,1.71,2.81-2.72,4.4-4.54,5.5-1.44.88-2.71,2-2.73,3.77a4.81,4.81,0,0,0,3,4.44,7,7,0,0,0,5.73.51,4,4,0,0,0,2.67-3.82,3.14,3.14,0,0,0-.32-1.07c-.1-.19-.92-1.08-.9-1.17s2.35-1,2.51-1.11c1.51-.89,3.06-2,3.48-3.77,1.11-4.86-3.7-9.27-7.61-11.14-.69-.33-1.3.7-.61,1,3.37,1.62,8.23,5.66,7,10-.51,1.79-2.88,3.05-4.52,3.68-.82.31-2.06.69-1.44,1.82s1.75,1.86.78,3.28a3.87,3.87,0,0,1-3.19,1.5c-2.36,0-5.41-1.51-5.36-4.18,0-2.09,2.66-3,4.2-3.9a6.81,6.81,0,0,0,3.22-3c1.51-3.58-4.05-6.77-6.49-8.32-.65-.42-1.25.62-.61,1Z"/><path d="M56.58,94c.82,1-.6,3.28-.74,4.39a5.8,5.8,0,0,0,.11,2,3.46,3.46,0,0,0,1.41,2.09c3.21,2.46,8.08,2.43,11.84,1.6,1.61-.35,3.25-.93,4.15-2.41a5,5,0,0,0,.39-4.33,5.57,5.57,0,0,0-3.38-2.82c-1.18-.44-3.3-.38-3.13-2.2a6,6,0,0,1,1.5-2.58c.46-.62-.58-1.22-1-.61-.82,1.1-1.79,2.21-1.64,3.67.17,1.7,1.29,2.16,2.77,2.51,1.83.43,3.88,1.39,4,3.5.16,2.32-1.56,3.5-3.58,4-3.39.85-9,1.15-11.64-1.7-2.2-2.37,1.77-5.51-.21-8-.48-.61-1.32.25-.85.85Z"/><path d="M80,88a1.86,1.86,0,0,1-.42,2.84c-.65.41,0,1.45.61,1a3.08,3.08,0,0,0,.66-4.73c-.51-.58-1.35.27-.85.85Z"/></g></g></svg>